<svg width="72" height="72" viewBox="0 0 72 72" fill="none" xmlns="http://www.w3.org/2000/svg">
  <!-- Background circle -->
  <circle cx="36" cy="36" r="36" fill="#6366F1"/>
  
  <!-- Brain outline -->
  <path d="M36 12C28 12 22 18 22 26C22 34 28 40 36 40C44 40 50 34 50 26C50 18 44 12 36 12Z" stroke="white" stroke-width="2" fill="none"/>
  
  <!-- Brain curves -->
  <path d="M22 26C22 34 28 40 36 40" stroke="white" stroke-width="2" fill="none"/>
  <path d="M50 26C50 34 44 40 36 40" stroke="white" stroke-width="2" fill="none"/>
  
  <!-- Brain folds -->
  <path d="M26 32C26 36 30 38 36 38" stroke="white" stroke-width="1.5" fill="none"/>
  <path d="M46 32C46 36 42 38 36 38" stroke="white" stroke-width="1.5" fill="none"/>
  
  <!-- Thought bubbles -->
  <circle cx="20" cy="20" r="3" fill="white" opacity="0.8"/>
  <circle cx="52" cy="20" r="2" fill="white" opacity="0.6"/>
  <circle cx="18" cy="52" r="2" fill="white" opacity="0.6"/>
  
  <!-- AI/Neural network dots -->
  <circle cx="30" cy="28" r="1" fill="white"/>
  <circle cx="42" cy="28" r="1" fill="white"/>
  <circle cx="36" cy="32" r="1" fill="white"/>
  <circle cx="32" cy="36" r="1" fill="white"/>
  <circle cx="40" cy="36" r="1" fill="white"/>
</svg>
